<svg id="regions">
    <g>
        <g
                id="south_west"
                style="display:inline"
                stroke="lime"
        >
            <path
                    d="m 683.1762,349.31248 -0.19412,-0.19412 3.49427,-3.20309 -0.97063,-3.88252 2.71777,-4.27078 -0.58238,-3.97959 2.91189,-5.62966 v -0.0971 h -0.0971"
                    style="stroke-width:0.970631"/>
            <path
                    d="m 594.46047,255.16129 -3.30014,0.19412 -35.81629,1.35889 -16.40367,0.38825 h -32.61321 l -13.10352,-0.19413 -3.6884,-0.0971 v 1.8442 l -0.0971,5.72672 -1.0677,51.34639 v 1.94127"
                    style="stroke-width:0.970631"/>
            <path
                    d="m 690.45598,328.05563 h 0.0971 v -0.7765 l 0.19413,-4.46491 1.94126,-2.42658 -0.58238,-2.71776 -0.0971,-0.0971 -0.0971,-0.0971 0.38825,-1.26182 0.58238,0.19413 0.29119,0.7765 -0.0971,0.29119 v 0.0971 0.77651 l 0.38826,0.0971 0.7765,-0.97063 v -0.0971 l 0.0971,-0.29119 2.52364,-1.55301 0.38826,-0.19413 0.87357,-7.95917 -0.19413,-0.38826 -0.29119,-0.0971 -6.89148,-5.62966 1.06769,-2.03833 -1.94126,-5.53259 -3.49427,-2.71777 -6.60029,-2.9119 -4.17372,-3.3972 0.48532,-6.98855 1.26182,-6.50323 -6.98855,0.38825 -2.13539,-2.23245 -0.97063,-4.4649 -11.06519,-9.31806 -3.10602,-8.63862 0.7765,-4.27078 v 0 l -0.19412,-0.19412 -5e-5,1e-4 -4.7561,-4.17372 -20.86857,2.62071 -21.25682,1.8442 -19.89794,0.58238 v 0 l -0.0971,0.58238 2.42657,4.65903 2.23246,1.553 2.6207,4.65903 0.38825,0.38826"
                    style="stroke-width:0.970631"/>
            <path
                    d="m 488.37044,317.66987 h -1.55301 l -6.11497,-0.19413 -1.94127,-0.0971 -4.07665,-0.0971 -1.94126,-0.0971 -0.0971,2.52364 -0.0971,2.52364 -0.0971,2.52364 -0.0971,2.62071"
                    style="stroke-width:0.970631"/>
            <path
                    d="m 707.92726,454.52891 -0.38825,-0.38826 -0.0971,0.19413 0.48532,0.19413 z m 1.06769,-1.74714 -0.97063,-0.29119 0.29119,0.97063 z m -78.62104,8.05624 12.03582,-1.35889 9.41513,2.62071 6.69735,0.87357 3.39721,-2.42658 -1.8442,-2.42658 6.21204,-1.94126 -0.19412,2.13539 3.20308,-0.77651 2.6207,4.07665 2.23245,-0.7765 5.82379,3.97959 -3.59133,1.26182 8.25036,2.42657 h 3.10602 l 1.8442,-2.23245 3.97959,-2.13539 2.81483,4.07666 1.94126,-3.6884 -0.58238,-5.82379 5.24141,2.03833 0.58238,1.74713 6.21204,0.77651 3.10602,2.52364 -0.38825,2.03832 4.36784,-4.07665 -1.65008,-2.13539 -7.27973,-1.8442 -2.71777,-1.55301 -0.0971,-2.91189 3.00896,0.38825 2.32951,-4.75609 -3.00896,-4.17371 -1.65007,3.97958 -3.78546,-0.67944 2.6207,-4.27078 -1.74713,-0.48531 -4.27078,3.00896 -6.11498,0.38825 -1.74713,-1.35889 2.81483,-4.95021 3.30014,-0.0971 5.62967,1.8442 4.07665,0.38825 v 0"
                    style="stroke-width:0.970631"/>
            <path
                    d="m 471.67563,327.27912 -3.30015,91.0452 -19.2185,-0.87357 -30.76901,-1.74713 -12.32701,-0.87357 2.42658,4.75609 0.0971,0.0971 10.48282,10.48281 6.01791,7.08561 7.95917,5.92085 5.62967,10.28869 2.13538,10.77401 4.56197,3.00895 3.59134,3.97959 5.14434,1.8442 7.47386,4.75609 3.39721,1.26183 4.65903,-4.65903 1.45595,-4.95022 2.42658,-4.7561 7.57092,-3.00895 2.91189,1.45594 8.44449,0.67945 7.66799,4.75609 5.24141,0.97063 -1.45595,2.71777 3.00896,1.94126 2.81483,3.39721 0.58238,3.59133 1.8442,2.42658 4.27077,10.28869 4.27078,3.59134 3.30015,5.43553 4.17371,4.27078 1.8442,0.58238 1.55301,11.06519 4.56197,2.52365 0.19412,3.49427 1.16476,-0.29119 7.95918,9.70631 3.97959,0.87357 5.04728,3.00896 h 7.76505 l 5.62966,3.10601 6.69735,-1.45594 -3.00895,-2.81483 -2.71777,-8.1533 -1.06769,-7.08561 -1.55301,-2.32952 0.67944,-4.75609 -2.03833,-0.19413 -2.71777,-4.4649 3.10602,3.30015 3.59134,-1.26182 1.94126,-5.14435 -3.88252,-5.24141 5.82378,0.67944 2.71777,-4.17371 -0.38825,-1.45595 2.42658,-3.20308 -0.58238,2.81483 2.71777,-2.13539 -1.0677,-3.78546 3.49427,1.8442 4.46491,-2.52364 -4.36784,-4.56197 2.71776,1.0677 5.04729,0.29119 6.60029,-1.45595 7.3768,-4.95022 4.4649,-3.6884 0.67944,-2.71777 2.71777,-2.81483 -1.45595,-4.65903 0.29119,-2.91189 4.85316,-2.13539 -0.38826,5.14435 h 2.9119 l -3.20308,2.71776 15.72189,-8.32566"
                    style="stroke-width:0.970631"/>
            <path
                    d="m 706.56842,444.53143 v -0.0971 l 3.59133,-4.07665 7.57093,-1.65007 6.98854,0.7765 1.06769,-1.35888 v -0.0971 l -4.95021,-29.89545 -0.19413,-21.8392 -0.58238,-39.79588 -1.35888,-0.87356 -0.38826,-0.77651 h -0.19412 l -4.85316,0.67944 -8.54155,1.16476 -19.41263,2.42658 -2.13539,0.19412 -4e-5,5e-5 v 0.0971"
                    style="stroke-width:0.970631"/>
        </g>
        <g
                id="south_east"
                style="display:inline"
                stroke="purple"
        >
            <path
                    d="m 718.21591,344.65343 0.0971,0.19413 v 2e-5 l 0.38826,0.77651 1.35888,0.87356 0.58238,39.79588 0.19413,21.8392 4.95021,29.89545 0.38826,-0.0971 4.36784,0.87357 1.16475,-8.63862 1.94127,4.85316 3.30014,3.00896 6.30911,-3.6884 -0.67945,-0.58238 0.19413,0.0971"
                    style="stroke-width:0.970631"/>
            <path
                    d="m 880.60259,517.03746 h -0.29119 l -0.0971,0.0971 0.38825,-0.0971 z m 0.77651,-0.48531 v 0 h -0.0971 z m 5.14438,-11.35636 -0.38825,-0.97063 -0.19413,0.38826 z m -49.50219,-23.58633 -1.74714,-1.26182 0.67945,0.67944 z m 43.6784,-6.50323 -7.0856,-11.8417 h -0.38826 z M 742.773,433.85436 l 0.29119,0.0971 -1.06769,3.97959 3.10602,-1.35888 3.3972,-3.00896 5.82379,-0.19412 6.69736,-2.42658 4.56196,0.67944 -1.06769,1.65007 8.34743,2.81483 7.18267,3.49428 1.65007,3.88252 5.33847,-1.16476 12.61821,-10.28869 4.65903,0.19413 19.02437,14.36534 3.88252,-0.77651 4.07666,5.43554 0.7765,8.63862 -1.26182,5.43553 0.58238,2.71777 3.39721,6.79442 -1.55301,-5.33847 4.36784,-0.0971 0.38825,3.88253 -2.32951,6.01791 8.05624,11.0652 3.00895,0.0971 -2.52364,-3.39721 3.10602,0.38825 1.8442,-1.16475 -0.7765,6.21204 4.17371,3.30014 2.81483,7.57093 3.78546,2.32951 4.85316,1.26182 6.69735,8.54156 3.49428,1.84419 -4.65903,0.29119 2.13538,2.42658 7.66799,-2.52364 3.78546,-2.13539 3.49427,-12.22995 -1.74713,-19.02437 -0.38825,-1.94127 -9.31806,-15.53009 -7.95918,-11.25933 -4.4649,-9.22099 3.78546,3.20308 0.7765,-0.58238 1.65008,8.05624 4.27077,6.11498 -4.17371,-8.1533 0.19413,-3.88253 -12.52115,-15.23891 -3.00895,-4.75609 -3.97959,-8.05624 -2.71777,-6.79442 -2.13539,-2.42658 -0.48531,-3.10602 -0.0971,-0.0971"
                    style="stroke-width:0.970631"/>
            <path
                    d="m 845.85395,396.09691 -0.0971,-2.9119 -0.67944,2.52364 0.7765,0.38826 z m 1.0677,-4.46491 -0.38825,-2.23245 -0.29119,1.35889 z m -2.62071,18.83032 v 0 l -0.58237,-10.48282 1.26182,-2.23245 -0.67945,-4.17371 1.35889,-3.97959 2.03832,-2.23245 -1.45594,-1.35889 3.39721,-4.17371 h -0.0971"
                    style="stroke-width:0.970631"/>
            <path
                    d="m 849.54235,381.82863 v 0 l 0.97063,-4.4649 -1.55301,-4.27078 4.17372,3.10602 2.32951,-1.8442 -3.97959,-3.30015 4.85316,-0.29119 7.57092,-6.40616 -0.87356,-1.65008 4.65903,-3.59133 -0.48532,-1.74714 3.39721,-2.13539 0.19413,-4.95022 5.33847,-9.90043 3.59133,-4.56197 0.38826,-0.19413"
                    style="stroke-width:0.970631"/>
            <path
                    d="m 890.2118,332.22937 -1.06769,1.0677 0.19412,0.19413 z m 0.7765,-5.62966 -0.48531,0.77651 0.19413,0.7765 z m 5.82379,-9.02687 -1.45594,0.97063 -0.77651,1.16476 z m 13.39471,-46.97855 -0.19412,0.0971 -0.29119,0.0971 v 0 h 0.0971 l 5.33847,9.02687 4.17372,4.17371 -9.12394,-13.39471 v 0 z m -1.74713,0.58238 -0.77651,0.19413 v 0 l 0.19413,0.0971 h 1.65007 l -0.19413,-0.58238 v 0 l -0.29118,0.0971 h -0.29119 v 0 0.19412 l -0.19413,0.0971 -0.0971,-0.0971 v 0 z m -28.34236,64.44987 0.38825,-0.29119 9.9975,-4.07665 0.0971,-5.33847 3.59134,-6.50323 3.88252,-3.6884 8.05624,-5.33847 1.0677,-1.94126 2.13538,0.97063 0.97064,-6.40616 -1.16476,2.23245 -4.07665,1.35888 -3.88253,0.0971 4.7561,-3.49427 -1.45595,-1.55301 1.65007,-3.49427 -9.12393,-1.45595 -0.38825,-0.48531 7.76505,-1.45595 2.52364,1.26182 3.20308,-0.29119 2.6207,-1.94126 1.94127,-3.78546 1.74713,-0.48532 -0.29119,-5.33847 -2.23245,-2.13539 -2.23245,2.03833 0.48531,5.14434 -1.65007,-6.3091 -1.26182,-0.29119 -9.60925,3.97959 4.27078,-4.17372 0.19413,-1.65007 4.4649,-1.06769 1.26182,-3.30015 3.00896,1.74714 -3.20309,-4.7561 -2.23245,-1.94126 v 0 l -38.82525,11.0652 -24.75109,6.3091 -25.04229,4.65903 -0.0971,-0.19413 h -7e-5"
                    style="stroke-width:0.970631"/>
            <path
                    d="m 818.67621,293.3072 -1.55301,0.29119 -5.5326,1.55301 -6.60029,1.35889 -16.59779,3.39721 -1.74714,0.29118 -0.38825,0.29119 7e-5,-1.4e-4 -27.76005,4.65903 -39.50469,5.24141 -3.30015,0.0971 0.97063,3.88252 -19.60675,2.6207 -2.81483,0.38826 v 0.0971 l -0.7765,0.97063 -0.38826,-0.0971 v -0.77651 -0.0971 l -1.06769,0.0971 0.0971,0.0971 0.58238,2.71776 -1.94126,2.42658 -0.19413,4.46491 v 0.7765 0.0971 l -2.91189,5.62966 0.58238,3.97959 -2.71777,4.27078 0.97063,3.88252 -3.49427,3.20309 0.19412,0.19412 2.13539,-0.19412 19.41263,-2.42658 8.54155,-1.16476 4.85316,-0.67944 h 0.19412 l -0.0971,-0.19413"
                    style="stroke-width:0.970631"/>
        </g>
        <g
                id="border_states"
                style="display:inline"
                stroke="red"
        >
            <path
                    d="m 796.74001,260.49973 v -0.19413 l -0.19413,-0.19412 -4.07665,-2.32952 -1.8442,-3.10602 -3.6884,3.59134 -2.32951,0.58238 -2.9119,-1.16476 -2.52364,1.94126 -5.24141,-2.32951 -1.35888,0.58237 -4.95022,-4.27077 -2.52364,-1.26182 -4.75609,0.58238 -0.77651,0.7765 h 10e-6 l -0.19413,0.19413 1.26182,4.75609 -5.2414,4.17371 -4.27078,0.0971 0.97063,3.6884 -6.11498,8.05623 0.0971,2.81483 -6.89148,-0.58237 -2.52365,4.95022 -4.65903,-0.67945 -3.10602,2.32952 -0.58237,2.23245 -5.43554,-2.03833 -4.36784,1.45595 h -3.59133 l -1.45595,2.71777 -0.38825,0.0971 v 0.29119 l -1.45595,3.30015 1.65007,2.32951 -6.11497,3.59134 1.45594,4.27077 -1.8442,2.13539 -7.47386,-2.03832 -1.94126,4.56196 0.58238,0.58238 0.19413,0.38826 -0.87357,7.95917 -0.38826,0.19413 -2.52364,1.55301 -0.0971,0.29119 2.81483,-0.38826 19.60675,-2.6207 -0.97063,-3.88252 3.30015,-0.0971 39.50469,-5.24141 27.76005,-4.65903 0.38825,-0.29119"
                    style="stroke-width:0.970631"/>
            <path
                    d="m 908.75086,270.98255 h 0.29119 l 0.29118,-0.0971 v 0 l -0.19412,-0.48531 -0.38825,0.58238 v 0 z m 1.16478,-29.31307 0.19413,-0.87356 -0.0971,0.19412 -0.0971,0.67944 z m -4.27077,0 0.29119,0.0971 -2.32952,14.4624 0.87357,2.32952 1.35888,-6.01792 2.52364,-7.86211 1.16476,-5.14435 v -0.0971 1e-5 m 1.94126,-0.7765 -0.29119,0.0971 -0.0971,0.38825 -0.48531,3.00896 0.38825,-1.0677 0.48531,-2.42657 z m -124.14373,60.76151 -0.67944,0.7765 1.74714,-0.29118 16.59779,-3.39721 6.60029,-1.35889 5.5326,-1.55301 1.55301,-0.29119 0.0971,0.19413 25.04229,-4.65903 24.75109,-6.3091 38.82525,-11.0652 v 0 l -0.29119,-0.48531 -0.0971,-0.29119 0.67944,0.67944 v 0 0 l 0.77651,-0.19413 -0.0971,-0.0971 -0.67944,-3.30015 0.48532,0.0971 1.55301,2.91189 v 0 0 l 0.29119,-0.0971 0.19412,-0.0971 -0.38825,-0.7765 -3.97959,-6.11498 -4.95022,0.87357 -2.23245,1.8442 -2.13539,-1.94126 -7.27973,-2.42658 -5.04728,-0.19413 9.80337,-0.87357 5.43554,3.6884 1.55301,-2.42658 -4.36784,-5.53259 3.10602,0.19412 -1.65008,-4.4649 -3.88252,0.19413 -9.221,-7.47386 h -1.16476 l 13.00646,6.40616 -0.87357,-4.4649 0.87357,-1.45595 -6.60029,-2.52364 -5.72672,-0.38825 -2.81483,-2.52364 -2.32952,1.45594 -0.87357,-6.69735 0.97063,0.19412"
                    style="stroke-width:0.970631"/>
            <path
                    d="m 838.67128,223.22757 -1.94126,0.48532 v -8e-5 l -13.78296,3.39721 -4.27078,-18.442 v 0 l -0.19413,0.0971 -0.48531,21.25682 -3.10602,4.65903 -3.59134,2.71777 -0.67944,-0.77651 -3.97959,5.43554 0.29119,4.27077 -2.42658,0.38826 -3.30014,5.04728 1.16476,3.30014 -1.45595,3.20309 -4.17371,2.03832 v 0 0.19413"
                    style="stroke-width:0.970631"/>
            <path
                    d="m 911.46862,229.43953 -0.0971,-0.19413 h 0.19413 l 0.29119,0.0971 v 0 l 0.19412,-0.0971 -0.19412,-0.38825 -2.32952,-6.21204 -11.35638,-10.774 0.48531,-7.47386 v 0 h -2.32951 l -1.74714,1.35888 -0.7765,1.94126 v 0 h 4e-5"
                    style="stroke-width:0.970631"/>
            <path
                    d="m 911.56569,238.27227 0.67944,-5.2414 -0.58238,3.88252 -0.38825,1.65007 -0.0971,0.19413 0.29119,-0.0971 0.0971,-0.38826 z m 0.48531,-9.02687 -0.19412,0.0971 0.19412,0.58238 v 1.16475 -1.8442 0 z m -33.58384,7.86215 6.01792,3.88252 6.01791,0.29119 3.97959,1.8442 -1.65008,-4.65903 -5.14434,-1.74714 -1.26182,-3.97958 3.20308,4.27077 2.62071,0.38826 -2.32952,-2.32952 -1.8442,-6.89148 0.48532,-3.97959 -2.03833,-4.36784 2.13539,-1.74713 1.55301,-5.62967 -0.58238,8.34743 1.65007,2.81483 1.55301,-3.30014 0.87357,5.43553 -1.65007,3.97959 4.75609,1.74714 -4.07665,1.35888 2.13539,3.97959 3.49427,1.16475 1.94126,-3.3972 -0.19412,4.75609 3.30014,-0.0971 2.13539,2.42657 h 0.0971 m 3.88252,-2.23245 -0.0971,-0.19412 2.52364,-7.47386 v -0.29119 l -0.48532,-1.94127 m -17.66548,-21.83924 -1.65008,0.48532 -6.89148,2.13539 -37.95168,10.57988 -6.89148,1.8442 -1.74714,0.48531 10e-6,5e-5"
                    style="stroke-width:0.970631"/>
        </g>
        <g
                id="north_east"
                style="display:inline"
                stroke="white"
        >
            <path
                    d="m 812.5613,182.07273 -3.49427,2.23245 -7.47386,5.72672 -4.85315,5.92085 -3.78547,0.58238 -6.98854,3.97959 -3.88253,-2.32951 -11.74463,-1.35889 v 0 l -6.21204,1.55301 -6.11498,1.45595 -6.40617,1.35888 -0.97063,0.29119 0.29119,1.55301 2.62071,14.65653 5.82378,34.36035 0.19413,1.65007 0.77651,-0.7765 4.75609,-0.58238 2.52364,1.26182 4.95022,4.27077 1.35888,-0.58237 5.24141,2.32951 2.52364,-1.94126 2.9119,1.16476 2.32951,-0.58238 3.6884,-3.59134 1.8442,3.10602 4.07665,2.32952 0.19413,0.19412 v 0 l 4.17371,-2.03832 1.45595,-3.20309 -1.16476,-3.30014 3.30014,-5.04728 2.42658,-0.38826 -0.29119,-4.27077 3.97959,-5.43554 0.67944,0.77651 3.59134,-2.71777 3.10602,-4.65903 0.48531,-21.25682 0.19413,-0.0971"
                    style="stroke-width:0.970631"/>
            <path
                    d="m 916.80709,207.30914 -0.48531,-1.16476 v 1.16476 z m -18.34495,-2.9317 0.48531,6.6201 11.45345,3.88252 0.0971,4.46491 2.62071,-3.6884 0.38825,-5.33847 2.71777,-1.8442 -1.0677,-3.97959 2.03833,-4.75609 v -10.38576 l -0.67944,-3.39721 -4.56197,0.0971 1.16476,-4.65903 0.67944,-7.47386 c 0,-10e-6 -10e-6,-2e-5 -10e-6,-3e-5"
                    style="stroke-width:0.970631"/>
            <path
                    d="m 926.90166,177.02545 4.85316,-4.27078 v -0.19413 z m -12.71527,3.00895 v -3.30014 l -0.29119,1.74713 z m 22.51864,-15.5301 -1.16475,-0.29119 -0.19413,0.87357 z m 2.62071,-1.74713 -0.0971,0.97063 0.19412,-0.58238 -0.0971,-0.38825 z m -2.71777,0.0971 -6.50323,6.01791 -9.9975,4.27078 -2.6207,2.23245 -0.19413,2.13539 -2.71777,2.23245 0.38826,2.9119 4.17371,-1.65008 6.11498,-4.95022 6.79441,-3.59133 10.2887,-9.70631 -7.27974,5.53259 -2.32951,0.97064 z m 3.00896,-4.07665 0.38825,-0.58238 -1.16476,1.35888 z m -109.09895,-3.59134 -1.55301,-0.19412 1.16476,1.55301 z m 32.22496,-29.70131 0.19412,-1.0677 -0.7765,0.97064 0.58238,0.0971 z m 0.48531,-6.98855 -0.38825,0.19413 -0.48532,1.06769 z m 51.24933,58.91732 1.94126,-0.48532 1.0677,-4.36784 v -0.0971 l -1.74714,-1.65007 2.52364,-3.10602 -1.16476,-1.45595 -3.68839,-14.26828 -0.19413,-0.97063 -0.48532,-0.29119 -0.29119,-4.27078 -0.29119,-4.65903 -0.29118,-5.04728 v -0.29119 l -0.19413,0.0971 -4.85316,-15.91835 -5.14434,-8.05624 -1.45595,-9.60924 -4.36784,-10.191633 -0.58238,0.29119 -20.28619,6.794418 -4.07665,4.367845 -4.56197,8.73568 0.19413,1.94126 -6.01791,9.12393 3.68839,1.26182 1.0677,6.89148 -4.27078,5.62967 -12.81233,7.76504 -2.42658,-0.97063 -9.51218,1.35889 -8.83275,5.33847 0.48532,2.81483 3.10602,2.71777 -1.74714,8.54155 -6.98854,8.1533 -0.0971,0.0971 3e-5,-3e-5"
                    style="stroke-width:0.970631"/>
            <path
                    d="m 818.19096,206.6297 0.48532,2.03832 v 0 l 4.27078,18.442 13.78296,-3.39721 1.94126,-0.48532 1.74714,-0.48531 6.89148,-1.8442 37.95168,-10.57988 6.89148,-2.13539 1.65008,-0.48532 v 0 l 0.7765,-1.94126 1.74714,-1.35888 h 2.32951 l 0.29119,-0.87357 m -76.77693,-29.89544 -1.65007,1.26182 -2.6207,1.8442 -4.7561,4.85315 -0.58238,0.48532"
                    style="stroke-width:0.970631"/>
        </g>
        <g
                id="new_england"
                style="display:inline"
                stroke="yellow"
        >
            <path
                    d="m 965.43572,142.85923 -0.0971,-1.35889 -0.19412,-0.7765 0.29119,2.13539 z m -53.57884,-6.40617 v 0.29119 l 0.29118,5.04728 0.29119,4.65903 0.29119,4.27078 0.48532,0.29119 m 33.87506,-4.56197 v 0 l 0.58238,-0.48531 0.29119,-1.45595 -0.0971,2.32952 v 0 h 0.97063 l 0.29119,1.16475 0.87357,1.65008 v 0 l 4.56197,-5.5326 3.78546,1.26182 0.87357,-1.94126 6.21204,-3.30015 -2.62071,-5.14435 0.67945,3.30015 -3.20309,2.42658 -3.59133,0.29119 -7.18267,-7.66799 -3.20309,-4.85315 3.20309,-3.39721 -3.30015,-0.19413 -1.35888,-3.20308 -0.0971,-0.19413"
                    style="stroke-width:0.970631"/>
            <path
                    d="m 913.21576,151.01253 0.19413,0.97063 3.68839,14.26828 1.16476,1.45595 -2.52364,3.10602 1.74714,1.65007 v 0 l 5.62966,-5.43554 3.00895,-4.17371 0.58238,1.16476 14.17122,-6.30911 0.29119,-0.29118"
                    style="stroke-width:0.970631"/>
            <path
                    d="m 944.76127,121.50534 v 0 -1.55301 l 0.29119,-2.52364 -0.67944,0.29119 -0.0971,-0.58238 M 923.89266,75.982735 v 0 l 4e-5,3e-6 -1.26182,1.55301 -1.45594,-0.29119 -0.77651,6.406166 v 0.09706"
                    style="stroke-width:0.970631"/>
            <path
                    d="m 941.16997,157.4187 0.19412,-0.29119 4.65903,-3.6884 -0.87356,-6.60029 1.94126,-0.38826 v 0"
                    style="stroke-width:0.970631"/>
            <path
                    d="m 920.39843,83.747787 -1.26182,0.485316 -5.33847,1.941262 -5.24141,2.038326 -12.03583,4.36784 -0.67944,0.194126 4.36784,10.191633 1.45595,9.60924 5.14434,8.05624 4.85316,15.91835 0.19413,-0.0971"
                    style="stroke-width:0.970631"/>
            <path
                    d="m 953.98227,97.724877 -0.77651,-1.164758 v 0.582379 z m -1.35888,-1.067695 v -0.970631 l -0.0971,-0.582379 z m 3.49427,-4.076651 -0.19413,-0.09706 0.0971,0.291189 0.0971,-0.194126 z m 3.97959,-9.415128 -0.19413,-1.067695 -0.38825,0.873568 z m 18.9273,-14.268279 -0.58237,-0.291189 -0.0971,0.291189 h 0.67944 z m -34.74859,48.240366 v -0.0971 l 0.97063,-0.29119 0.19413,-5.5326 1.55301,-1.94126 0.97063,-5.14435 -0.87357,-0.87357 1.65007,-5.047274 5.62966,-2.620704 3.6884,-4.464904 1.35888,-7.765049 5.92085,-0.388253 -0.7765,-3.979588 7.3768,-2.81483 0.48531,-4.36784 1.74714,0.388252 4.85315,-3.979588 2.13539,-5.144345 -4.95022,-4.950219 -5.2414,-1.067695 -1.94127,-3.979588 V 50.74628 l -3.20308,0.970632 -3.59134,-1.261821 v -3.979588 l -9.70631,-20.965634 -7.0856,-3.688398 -7.86212,6.600292 -2.13539,-0.388253 -1.8442,-3.397209 -2.52364,0.970631 -3.59133,17.859614 1.26182,5.823788 1.06769,11.8417 -2.81483,9.123934 1.94126,1.455946 -2.32951,4.464904 -2.52364,-0.388253 -0.19413,0.194127 0,4e-5"
                    style="stroke-width:0.970631"/>
        </g>
        <g
                id="north_west"
                style="display:inline"
                stroke="orange"
        >
            <path
                    d="m 631.15029,114.22561 v 0 l 7.57093,-7.95918 8.63861,-11.065195 3.30015,-2.329514 5.82379,-2.814831 6.11497,-4.561967 -4.07665,0.776505 -2.42658,-1.844199 -9.31806,1.261821 -1.45594,-1.747136 -8.34743,3.397209 -6.69736,-2.814831 -1.84419,-2.232452 -5.33848,0.388253 -3.59133,-1.844199 1.16476,-1.358884 -4.56197,-1.455947 h -4.07665 l -6.50323,2.814831 -1.26182,-1.941263 -10.28869,-1.455947 -3.49427,-8.73568 -0.38826,-2.620705 -4.4649,-1.26182 0.38825,7.47386 -11.8417,0.873568 -14.65653,0.582379 -0.97063,0.09706 4e-5,3e-6 1.94126,6.891482 4.07665,24.848159 1.94126,9.90044 0.58238,8.73568 2.23246,5.24141 0.48531,4.4649 0.38825,1.45595 -0.0971,0.29119 -3.88252,6.40616 2.52364,4.27078 4.85315,34.16622 0.19413,4.4649"
                    style="stroke-width:0.970631"/>
            <path
                    d="m 586.88955,243.31964 v 0 l 19.89794,-0.58238 21.25682,-1.8442 20.86857,-2.62071 4.7561,4.17372 0.19412,0.19412 m -80.07707,-57.65557 -2.03833,0.0971 1.65008,10.77401 -1.35889,5.14435 2.13539,3.20308 v 0.67944"
                    style="stroke-width:0.970631"/>
            <path
                    d="m 574.1742,204.88252 -1.8442,-0.19413 8e-5,4e-5 -3.00895,-3.00895 -10.57988,-3.10602 -3.39721,-0.0971 -5.14435,1.45594 -6.11498,-3.88252 -19.12143,0.19412 -27.85712,-0.29119 -32.90439,-1.06769 -2.9119,-0.0971 -0.0971,2.52364 -0.38825,7.57092 -0.87357,17.76255 -0.48532,10.19163 -0.0971,2.52364 2.32952,0.0971 23.6834,0.87357 4.65903,0.19413 -0.38826,19.02437 -0.0971,1.26182 3.6884,0.0971 13.10352,0.19413 h 32.61321 l 16.40367,-0.38825 35.81629,-1.35889 3.30014,-0.19412 -0.38825,-0.38826 -2.6207,-4.65903 -2.23246,-1.553 -2.42657,-4.65903 0.0971,-0.58238"
                    style="stroke-width:0.970631"/>
            <path
                    d="m 653.86306,242.64011 v 0 l -0.7765,4.27078 3.10602,8.63862 11.06519,9.31806 0.97063,4.4649 2.13539,2.23245 6.98855,-0.38825 -1.26182,6.50323 -0.48532,6.98855 4.17372,3.3972 6.60029,2.9119 3.49427,2.71777 1.94126,5.53259 -1.06769,2.03833 6.89148,5.62966 0.29119,0.0971 -0.58238,-0.58238 1.94126,-4.56196 7.47386,2.03832 1.8442,-2.13539 -1.45594,-4.27077 6.11497,-3.59134 -1.65007,-2.32951 1.45595,-3.30015 v -0.29119 m -3.10599,-80.27124 -0.97064,-1.06769 -2.52364,-5.72673 -2.03832,-2.13539 -0.87357,-5.62966 v -0.19412"
                    style="stroke-width:0.970631"/>
            <path
                    d="m 713.07158,287.96859 0.38825,-0.0971 1.45595,-2.71777 h 3.59133 l 4.36784,-1.45595 5.43554,2.03833 0.58237,-2.23245 3.10602,-2.32952 4.65903,0.67945 2.52365,-4.95022 6.89148,0.58237 -0.0971,-2.81483 6.11498,-8.05623 -0.97063,-3.6884 4.27078,-0.0971 5.2414,-4.17371 -1.26182,-4.75609 0.19413,-0.19413 -0.19413,-1.65007 -5.82378,-34.36035 -2.62071,-14.65653 -0.29119,-1.55301 -0.29119,-1.26182 6e-5,7e-5 m -30.28369,5.24141 -2.52364,2.03833 -3.78546,1.74713 -1.45595,-0.0971 -1.74714,-0.87357 -0.58237,-0.58238"
                    style="stroke-width:0.970631"/>
            <path
                    d="m 703.55938,192.9438 -0.38825,-1.45595 v -4.56197 l -2.62071,-4.85315 -0.67944,-6.11498 1.26182,-6.79442 -0.67944,-5.24141 2.32952,-6.50322 -0.87357,-1.0677 0.19412,-6.01791 1.26182,-4.56197 -1.45594,-1.55301 -2.81483,0.97063 -1.55301,4.07665 -3.6884,2.13539 1.16476,-5.14434 3.30014,-4.36784 0.19413,-1.94127 0.0971,-0.0971 m -43.48428,-24.55697 -0.29119,0.29119 -4.95022,-0.67944 -1.65007,0.97063 0.67944,-7.08561 -7.95917,4.07665 -9.70631,1.55301 c -0.0323,-0.0647 -0.0648,-0.12958 -0.0971,-0.19408 m 19.02437,-5.14435 -0.19412,-0.67944 -0.67944,0.29119 z"
                    style="stroke-width:0.970631"/>
            <path
                    d="m 750.63503,201.48535 0.97063,-0.29119 6.40617,-1.35888 6.11498,-1.45595 6.21204,-1.55301 -0.0971,-0.29119 3.20309,-6.3091 -0.29119,-5.24141 3.59133,-9.02687 2.81483,1.65007 1.0677,-2.03832 -0.29119,-7.76505 -2.62071,-4.85316 -3.88252,-10.28869 -3.39721,-3.78546 -1.74714,-0.48531 -6.3091,4.36784 0.67944,0.87356 -3.30014,6.21204 -3.20309,-0.58238 -0.97063,-6.50322 1.35889,-0.48532 2.81483,-6.50323 0.29119,-11.45345 -4.36784,-9.70631 -9.70632,-1.65007 -0.97063,-1.45595 -9.02687,-2.6207 -4.07665,5.04728 0.38825,4.36784 -3.10602,3.88252 0.67945,6.01792 -3.00896,2.13539 v -7.57093 l -2.71777,5.72673 -3.20308,5.04728 -2.13539,1.65007 1.06769,5.33847 -1.35888,5.5326 0.77651,6.89148 -0.97064,3.39721 6.98855,13.39471 0.87357,5.14435 -0.87357,9.51218 -4.65903,10.67695 -0.58238,0.38825 h 3e-5 M 698.6092,139.85027 v -0.0971 l 3.78546,-10.96814 4.56197,-3.20308 3.49427,-3.88252 0.58238,3.49427 3.59134,-5.5326 8.63861,-3.30014 0.67945,-1.35889 8.73568,1.0677 3.39721,1.74713 1.65007,-4.27077 1.55301,0.97063 6.79442,-1.0677 -1.65008,-2.71777 -3.00895,-1.74713 0.58238,-6.3091 -5.92085,3.30014 -5.43554,-0.67944 -1.74714,-4.17371 0.58238,-1.358888 -7.37679,3.494268 -4.7561,0.29119 -8.54155,5.24141 -0.97063,1.94126 -5.24141,-1.26182 -3.30015,1.45595 -6.60029,-5.72672 -14.65653,-4.46491 -0.29119,-1.747133 -9.41512,9.026873 -5.33847,1.35888 -7.57093,5.72673 -0.29119,0.19412 v 4e-5 m 34.36035,-22.033327 -11.35639,5.629661 3.78546,3.688396 1.45595,-3.688396 3.88253,-4.756093 z"
                    style="stroke-width:0.970631"/>
        </g>
    </g>
</svg>
